<?xml version="1.0"?><svg width="281.58243" height="265.60468" xmlns="http://www.w3.org/2000/svg">
 <title>Ten Side Dice - Black</title>

 <metadata id="metadata5495">image/svg+xmlTen Side DiceBrian Burger/Wirelizard DesignTen-sided dice, as used in role-playing games (RPGs) and wargaming.</metadata>
 <g>
  <title>Layer 1</title>
  <g id="layer1">
   <path fill="#000000" id="rect4823" d="m98.219803,-1.99841c-0.421806,0.01001 -0.853302,0.03299 -1.25,0.125c-4.245804,0.6737 -6.399506,5.0234 -9.5,9.125c-3.505806,47.911408 -8.457703,91.780309 -11.968803,139.750409c14.693298,-1.100998 34.887001,-0.875 55.625008,-1.156998c22.561996,-0.306 44.547989,-1.850006 55.312988,-5.75c22.182999,-8.037003 39.299011,-28.388 53.593002,-58.624702c-43.940002,-26.7523 -91.238998,-58.548899 -131.811996,-80.250019c-3.526001,-1.470097 -7.048004,-3.28141 -10.000198,-3.21869zm-19.125,19.593711c-26.277905,49.684996 -49.520903,90.343702 -76.031293,140.906698c-0.51467,13.585007 2.16566,21.404007 5.59375,26.375c3.43604,4.981995 6.54994,6.270996 11.15624,5.968002c6.6436,-2.201996 14.992599,-8.119003 23.625,-15.593002c3.273201,-2.916992 24.236,-21.104004 26.031303,-25.125c3.289398,-44.956001 6.311699,-87.3144 9.625,-132.531698zm75.031204,2.375c31.984985,19.8454 62.562988,39.803598 90.405991,56.281301c8.322006,4.924896 24.100998,10.765495 36.031998,14.3125c-11.35498,-11.498604 -24.315002,-21.381699 -38.75,-28.500004l-87.687988,-42.093798zm-20.375,18.531298c3.228989,-0.084 6.431,0.823601 9.593994,2.6875c6.334991,3.682903 12.218002,11.083401 17.656006,22.218803c5.077988,10.398701 6.990997,20.022594 5.75,28.874996c-1.230011,8.807098 -5.452011,15.434105 -12.656006,19.875099c-1.934998,1.193001 -3.986008,2.186005 -6.188004,2.969002l-7.155991,1.812004l-3.969009,-8.125c2.453003,-0.132004 4.804001,-0.523003 7.063004,-1.187004c2.259003,-0.665001 4.341003,-1.604996 6.25,-2.781998c5.091003,-3.138 8.003998,-7.4981 8.75,-13.093399c0.755997,-5.640305 -0.628006,-12.599205 -4.188004,-20.906303c-0.238998,3.443901 -1.177002,6.529503 -2.780991,9.281303c-1.604004,2.751801 -3.782013,4.961395 -6.531006,6.656296c-5.701996,3.515305 -11.192001,4.327301 -16.468994,2.406204c-5.266006,-1.966202 -9.588005,-6.420799 -12.969009,-13.343803c-3.307999,-6.775299 -4.242996,-13.270798 -2.780998,-19.5c1.462997,-6.229 5.091003,-11.109398 10.844002,-14.6562c3.295998,-2.0322 6.552002,-3.103298 9.781006,-3.1875zm-0.719009,8.406303c-1.863998,0.069298 -3.731003,0.676498 -5.625,1.843697c-3.461998,2.134403 -5.533997,5.225502 -6.217995,9.25c-0.674004,3.9795 0.152,8.319698 2.467995,13.062504c2.331001,4.772301 5.182999,7.906494 8.531998,9.406197l10.25,-0.968697c3.462006,-2.1343 5.514008,-5.176704 6.187012,-9.156303c0.69899,-3.994797 -0.10701,-8.383801 -2.437012,-13.1562c-2.317001,-4.742699 -5.156998,-7.859398 -8.531998,-9.3438c-1.261002,-0.573299 -2.537003,-0.879299 -3.811996,-0.937397c-0.266006,-0.012203 -0.546005,-0.010002 -0.813004,0zm-68.280998,25.0312c0.665199,-0.037003 1.208,0.156296 1.625,0.5625c1.343102,1.269402 1.253601,4.597099 -0.3125,10c-1.091103,3.764 -2.640598,7.452194 -4.5937,11.0625c-1.944401,3.5802 -4.158298,6.809898 -6.6563,9.655899c2.170799,-1.100998 3.5284,-0.739998 4.0313,1.094002c0.519501,1.82 0.141899,4.909996 -1.125,9.280998c-1.9445,6.709 -4.748898,12.968002 -8.375,18.781998c-3.626198,5.813004 -7.781399,10.681 -12.5,14.625c-1.584099,1.324005 -3.138298,2.417999 -4.6563,3.25c-1.51,0.848007 -3.007999,1.442001 -4.4687,1.811996l2.5937,-8.875c0.984501,0.304001 2.191002,0.150009 3.6563,-0.5c1.465202,-0.649994 3.131802,-1.746002 4.9687,-3.280991c3.2019,-2.67601 5.952999,-5.860001 8.2813,-9.531006c2.345001,-3.684998 4.148003,-7.691002 5.4062,-12.031998c1.1614,-4.006004 1.2911,-6.470001 0.375,-7.405998c-0.890499,-0.981003 -2.719398,-0.324005 -5.5,2l-4.4062,3.687996l2.1875,-7.562996l4.5937,-3.844002c2.510902,-2.098 4.712002,-4.596001 6.5625,-7.499702c1.8592,-2.9338 3.2645,-6.100296 4.25,-9.5c1.011799,-3.490601 1.0952,-5.584496 0.25,-6.281197c-0.8195,-0.740906 -2.500999,-0.047104 -5.0625,2.093796c-1.3988,1.169106 -2.9907,2.6782 -4.75,4.562401c-1.7593,1.884804 -3.744499,4.209702 -6,6.968803l2.375,-8.1875c2.219501,-2.591103 4.2365,-4.8246 6.0625,-6.718704c1.8428,-1.908401 3.500099,-3.496399 5,-4.75c2.6647,-2.227196 4.724102,-3.3871 6.1875,-3.468796zm182.280998,13.0625c-14.130997,29.867401 -32.132004,52.603394 -55.186996,62.062393l3.5,113.781006c6.026001,-3.364014 7.164993,-5.378998 9.811996,-11.75l78.625015,-144.280998c1.096985,-2.810005 1.197998,-4.629005 -0.531006,-5.812401c-12.964996,-3.6278 -24.104004,-8.058601 -36.219009,-14zm-59.343002,19.906395l2.75,5.594002l-45.593994,22.406006l-2.781006,-5.594002l45.625,-22.406006zm66.875,21l-3.125,8.187004c-3.472992,4.640991 -8.175995,10.886993 -14.093994,18.718994c-5.947998,7.872009 -9.738998,12.899002 -11.343994,15.125c-3.036011,4.19101 -5.349014,7.633011 -6.937012,10.313004c-1.618988,2.718002 -2.878998,5.248001 -3.781998,7.593002c-1.472,3.822998 -1.938995,6.656998 -1.405991,8.468994c0.515991,1.819 1.949997,2.234009 4.280991,1.281006c1.653,-0.675003 3.591995,-1.904999 5.844009,-3.718002c2.234985,-1.806992 4.834,-4.214005 7.75,-7.218994l-3.812012,9.811996c-2.728989,2.442001 -5.159988,4.444 -7.312988,6c-2.153,1.556992 -4,2.656006 -5.531006,3.281998c-4.035995,1.649002 -6.533997,1.087997 -7.5,-1.656998c-0.966003,-2.744995 -0.244003,-7.237 2.156006,-13.468002c1.138,-2.955994 2.520996,-5.867004 4.155991,-8.781998c1.606003,-2.876007 3.906998,-6.442001 6.875,-10.686996c0.794006,-1.110001 3.199997,-4.363998 7.25,-9.781006l17.063004,-22.688004l-18.406006,7.5l3.156006,-8.186996l24.718994,-10.094002zm-68.937988,23.405998c-12.719009,3.815002 -33.16301,4.618011 -54.437012,4.906006c-18.054993,0.171005 -42.773499,-1.25 -57.344193,1.375c-8.508301,8.197998 -17.667904,16.962997 -26.625004,24.718994c-7.975399,6.680008 -16.1432,13.618011 -26.2188,16.813004c-1.239199,0.100006 -1.4405,-0.039993 -2.6875,-0.188004c3.7351,3.362 7.6625,5.399002 11.906301,7.813004l143.437197,57.436996c0.753998,0.147003 8.699005,3.089996 15.188004,0.031006l-3.218994,-112.906006zm-68.906006,31.719009c0.640999,-0.022003 1.276001,-0.018997 1.905998,0c0.720001,0.021988 1.417999,0.082001 2.125,0.155991c5.655998,0.595001 10.153999,2.74501 13.500008,6.469009c2.39299,2.662994 3.375992,5.371002 2.905991,8.125c-0.440002,2.740997 -2.265991,5.240997 -5.436996,7.5c4.901993,-1.096008 9.468994,-1.091003 13.686996,-0.031006c4.247009,1.046005 7.701996,3.056 10.375,6.031006c4.057007,4.513992 5.218002,8.787003 3.5,12.843994c-1.688995,4.042999 -6.125,7.604996 -13.343002,10.656006c-7.218994,3.050995 -13.850998,4.177002 -19.906998,3.405991c-6.026001,-0.78299 -11.068001,-3.422989 -15.125,-7.936996c-2.672997,-2.975998 -3.732994,-5.990005 -3.186996,-9.063004c0.544998,-3.071991 2.618996,-5.863998 6.25,-8.375l0,-0.030991c-4.398003,0.940002 -8.484001,0.949997 -12.280998,0c-3.768402,-0.962006 -6.857605,-2.775009 -9.250504,-5.438004c-3.346298,-3.723999 -4.142097,-7.455002 -2.375,-11.186996c1.796402,-3.74501 5.949898,-6.977005 12.4375,-9.719009c4.989998,-2.108994 9.733002,-3.255997 14.219002,-3.405991zm-1.563004,6.5c-2.596001,0.047989 -5.337997,0.701996 -8.186996,1.905991c-3.829002,1.618011 -6.176003,3.527008 -7.094002,5.781006c-0.888901,2.242004 -0.262299,4.587006 1.905998,7c2.168999,2.414001 4.900002,3.850006 8.219002,4.313004c3.348,0.450989 6.953003,-0.132004 10.780998,-1.75c3.799004,-1.606003 6.145004,-3.527008 7.063004,-5.781006c0.947006,-2.266998 0.356003,-4.617996 -1.813004,-7.031998c-2.167999,-2.412994 -4.965996,-3.843002 -8.342995,-4.281006c-0.838005,-0.112991 -1.666,-0.171997 -2.532005,-0.155991zm19.281998,20.186996c-2.953003,0 -6.009995,0.688004 -9.187996,2.031998c-4.208,1.778 -6.825996,3.966003 -7.811996,6.593002c-0.957001,2.615005 -0.181,5.317001 2.342995,8.125c2.524002,2.809006 5.727005,4.535995 9.563004,5.125c3.865005,0.576996 7.884995,-0.033997 12.093994,-1.811996c4.208008,-1.779007 6.826004,-3.998001 7.812012,-6.625c0.966995,-2.64801 0.192993,-5.369003 -2.312012,-8.156006c-2.524002,-2.809006 -5.728989,-4.485992 -9.593994,-5.063004c-0.959,-0.146988 -1.921997,-0.220001 -2.906006,-0.218994z"/>
  </g>
 </g>
</svg>